solid SFCGAL_export
  facet normal 0 0 1
    outer loop
      vertex 0 1 0
      vertex 1 0 0
      vertex 1 1 0
    endloop
  endfacet
  facet normal 0 0 1
    outer loop
      vertex 0 1 0
      vertex 0 0 0
      vertex 1 0 0
    endloop
  endfacet
  facet normal 0 0 1
    outer loop
      vertex 2 3 0
      vertex 3 2 0
      vertex 3 3 0
    endloop
  endfacet
  facet normal 0 0 1
    outer loop
      vertex 2 3 0
      vertex 2 2 0
      vertex 3 2 0
    endloop
  endfacet
endsolid SFCGAL_export
